<?xml version="1.0" encoding="UTF-8" standalone="no"?>
<!-- Created with Inkscape (http://www.inkscape.org/) -->

<svg
   width="50.00005mm"
   height="50.000038mm"
   viewBox="0 0 50.00005 50.000038"
   version="1.1"
   id="svg8"
   inkscape:version="1.3 (0e150ed6c4, 2023-07-21)"
   sodipodi:docname="Logo - without text.svg"
   style="enable-background:new"
   xmlns:inkscape="http://www.inkscape.org/namespaces/inkscape"
   xmlns:sodipodi="http://sodipodi.sourceforge.net/DTD/sodipodi-0.dtd"
   xmlns="http://www.w3.org/2000/svg"
   xmlns:svg="http://www.w3.org/2000/svg"
   xmlns:rdf="http://www.w3.org/1999/02/22-rdf-syntax-ns#"
   xmlns:cc="http://creativecommons.org/ns#"
   xmlns:dc="http://purl.org/dc/elements/1.1/">
  <defs
     id="defs2" />
  <sodipodi:namedview
     id="base"
     pagecolor="#ffffff"
     bordercolor="#666666"
     borderopacity="1.0"
     inkscape:pageopacity="0.0"
     inkscape:pageshadow="2"
     inkscape:zoom="1.5815853"
     inkscape:cx="373.99184"
     inkscape:cy="121.71332"
     inkscape:document-units="mm"
     inkscape:current-layer="layer1"
     showgrid="false"
     inkscape:window-width="1920"
     inkscape:window-height="1001"
     inkscape:window-x="-9"
     inkscape:window-y="-9"
     inkscape:window-maximized="1"
     inkscape:showpageshadow="0"
     inkscape:pagecheckerboard="1"
     inkscape:deskcolor="#d1d1d1" />
  <metadata
     id="metadata5">
    <rdf:RDF>
      <cc:Work
         rdf:about="">
        <dc:format>image/svg+xml</dc:format>
        <dc:type
           rdf:resource="http://purl.org/dc/dcmitype/StillImage" />
        <dc:title />
      </cc:Work>
    </rdf:RDF>
  </metadata>
  <g
     inkscape:label="Layer 1"
     inkscape:groupmode="layer"
     id="layer1"
     transform="translate(0,-246.99991)">
    <path
       inkscape:connector-curvature="0"
       id="path3723-2"
       d="M 25.000024,246.99991 A 25,25.000013 0 0 0 0,271.99992 a 25,25.000013 0 0 0 25.000024,25.00003 25,25.000013 0 0 0 12.088667,-3.14915 23,23 0 0 1 -7.088455,1.14927 23,23 0 0 1 -23.0001466,-23.00015 23,23 0 0 1 23.0001466,-23.00014 23,23 0 0 1 7.130314,1.14929 25,25.000013 0 0 0 -12.130526,-3.14916 z"
       style="fill:#000080;stroke-width:0.339786" />
    <path
       inkscape:connector-curvature="0"
       id="path3723"
       d="m 30.000236,252.00012 a 20,20 0 0 0 -6.865731,1.23248 19,19 0 0 1 2.865458,-0.23254 19,19 0 0 1 18.999872,18.99986 19,19 0 0 1 -18.999872,18.99989 19,19 0 0 1 -2.862874,-0.24083 20,20 0 0 0 6.863147,1.24077 20,20 0 0 0 19.999812,-19.99983 20,20 0 0 0 -19.999812,-19.9998 z"
       style="fill:#000080;stroke-width:0.27183" />
    <path
       style="font-size:37.8942px;line-height:1.25;font-family:'AR DESTINE';-inkscape-font-specification:'AR DESTINE';letter-spacing:0px;word-spacing:0px"
       d="m 235.52071,1023.1678 v -3.5896 h -7.21618 l -2.33138,3.5896 h -7.10517 l 14.0253,-21.6485 q 1.44324,-2.22041 3.95965,-2.22041 1.88731,0 3.25653,1.40621 1.40623,1.3692 1.40623,3.2566 v 8.4743 h -5.99498 v -3.9966 l -3.40456,5.1808 h 9.39954 v 9.5476 z m 16.94877,-2.2204 q -1.40623,2.2204 -3.92264,2.2204 -1.88731,0 -3.29354,-1.3692 -1.36922,-1.4063 -1.36922,-3.2936 v -19.20611 h 5.95797 v 14.72841 l 9.58457,-14.72841 h 7.06816 z"
       id="flowRoot3863-7-9"
       aria-label="AV"
       transform="matrix(0.62940846,0,0,0.58653711,-127.75736,-321.12588)" />
  </g>
</svg>
